<svg id="Capa_1" fill='white' enable-background="new 0 0 512 512" height="512" viewBox="0 0 512 512" width="512" xmlns="http://www.w3.org/2000/svg"><g><path d="m46 512h120c8.284 0 15-6.716 15-15s-6.716-15-15-15h-45v-265.189l60 20v19.189c0 4.409 1.94 8.595 5.305 11.445 3.325 2.817 7.763 4.084 12.161 3.351l270-45c7.233-1.206 12.534-7.463 12.534-14.796v-90c0-7.333-5.301-13.59-12.534-14.796l-270-45c-4.349-.725-8.797.501-12.161 3.351-3.365 2.85-5.305 7.036-5.305 11.445v19.189l-60 20v-85.189h15c8.284 0 15-6.716 15-15s-6.716-15-15-15h-60c-8.284 0-15 6.716-15 15s6.716 15 15 15h15v452h-45c-8.284 0-15 6.716-15 15s6.716 15 15 15zm345-388.293 60 10v64.586l-60 10zm-90-15 60 10v94.586l-60 10zm-90-15 60 10v124.586l-60 10c0-16.329 0-128.046 0-144.586zm-90 53.104 60-20v78.377l-60-20z"/></g></svg>